<?xml version="1.0" standalone="no"?>
<!DOCTYPE svg PUBLIC "-//W3C//DTD SVG 20010904//EN"
 "http://www.w3.org/TR/2001/REC-SVG-20010904/DTD/svg10.dtd">
<svg version="1.0" xmlns="http://www.w3.org/2000/svg"
 width="260.000000pt" height="260.000000pt" viewBox="0 0 260.000000 260.000000"
 preserveAspectRatio="xMidYMid meet">
<metadata>
Created by potrace 1.11, written by Peter Selinger 2001-2013
</metadata>
<g transform="translate(0.000000,260.000000) scale(0.100000,-0.100000)"
fill="#000000" stroke="none">
<path d="M0 1300 l0 -1300 1300 0 1300 0 0 1300 0 1300 -1300 0 -1300 0 0
-1300z m2260 1261 c16 -31 12 -86 -10 -114 -13 -16 -38 -29 -71 -37 -56 -14
-72 -21 -134 -62 -94 -61 -140 -150 -161 -314 -14 -103 -14 -124 -1 -168 8
-28 24 -94 37 -146 41 -171 53 -194 164 -311 123 -130 139 -151 176 -232 65
-143 97 -283 107 -458 5 -99 4 -109 -21 -165 -20 -44 -50 -83 -109 -141 -94
-93 -189 -149 -312 -184 -44 -13 -100 -35 -125 -50 -71 -43 -194 -81 -223 -70
-43 17 -63 123 -31 169 20 28 30 28 46 -2 l13 -25 75 25 c41 14 98 38 125 53
28 15 70 34 95 41 83 24 135 44 183 72 26 15 51 28 55 28 17 0 132 127 146
161 11 27 13 50 6 105 -35 270 -101 406 -281 579 -68 65 -88 98 -123 201 -79
233 -98 386 -71 580 21 151 61 240 148 332 33 34 66 62 72 62 7 0 19 7 26 16
15 19 43 31 119 55 72 22 68 22 80 0z m-1978 -35 c91 -20 117 -36 212 -125 44
-43 97 -86 116 -97 19 -10 47 -30 63 -43 53 -48 73 -188 41 -297 -20 -70 -112
-166 -205 -215 -36 -19 -86 -46 -110 -61 -25 -15 -68 -33 -96 -40 -46 -12 -50
-15 -41 -33 6 -11 19 -29 29 -40 20 -23 119 -217 119 -235 0 -12 80 -230 155
-425 73 -188 77 -206 82 -460 5 -221 4 -231 -15 -255 -39 -47 -46 -19 -53 198
-6 219 -14 257 -83 437 -24 61 -69 182 -100 270 -85 237 -106 282 -170 372
l-23 32 -7 -507 c-10 -672 -16 -796 -39 -819 -17 -17 -19 -17 -34 2 -13 18
-14 54 -7 295 14 451 11 1089 -6 1195 -14 86 -15 156 -10 669 l1 129 36 34
c41 37 51 38 145 19z m1098 -5 c15 -29 12 -83 -6 -109 -14 -20 -23 -22 -120
-22 -58 0 -114 -4 -124 -10 -24 -13 -77 -154 -85 -227 -5 -47 -1 -78 22 -159
16 -55 41 -121 55 -145 42 -70 166 -205 312 -338 163 -147 166 -153 166 -355
0 -180 -27 -318 -81 -413 -32 -55 -303 -343 -323 -343 -7 0 -30 -18 -51 -40
-21 -22 -44 -40 -50 -40 -7 0 -20 -10 -31 -21 -10 -12 -30 -26 -44 -31 -32
-12 -50 11 -50 64 0 42 15 61 84 108 134 90 383 337 420 415 33 68 51 180 51
304 l0 104 -70 61 c-109 93 -310 302 -360 371 -53 74 -72 122 -111 275 -12 48
-15 94 -12 175 4 97 9 122 43 213 31 84 46 110 81 142 l44 40 114 0 c104 0
116 -2 126 -19z"/>
<path d="M176 2283 c-13 -233 -16 -410 -8 -453 l8 -45 58 2 c68 2 137 26 187
64 19 15 46 30 60 34 50 13 133 80 157 128 31 63 21 104 -33 132 -21 11 -81
60 -134 108 -53 49 -107 93 -121 99 -25 11 -135 37 -157 38 -7 0 -13 -36 -17
-107z"/>
</g>
</svg>
